<mxfile host="app.diagrams.net" modified="2023-08-22T07:30:04.555Z" agent="Mozilla/5.0 (X11; Ubuntu; Linux x86_64; rv:109.0) Gecko/20100101 Firefox/115.0" etag="dFF0VsdGBbEtQ2mVIWKA" version="21.6.8" type="github">
  <diagram name="Halaman-1" id="6g6Xok4Ner29cH19xg24">
    <mxGraphModel dx="1042" dy="1784" grid="1" gridSize="10" guides="1" tooltips="1" connect="1" arrows="1" fold="1" page="1" pageScale="1" pageWidth="827" pageHeight="1169" background="none" math="0" shadow="0">
      <root>
        <mxCell id="0" />
        <mxCell id="1" parent="0" />
        <mxCell id="T-Ay2KSamFzbn1bJ3DCf-12" value="Actor" style="shape=umlActor;verticalLabelPosition=bottom;verticalAlign=top;html=1;outlineConnect=0;" vertex="1" parent="1">
          <mxGeometry x="90" y="190" width="90" height="150" as="geometry" />
        </mxCell>
        <mxCell id="T-Ay2KSamFzbn1bJ3DCf-16" value="Actor" style="shape=umlActor;verticalLabelPosition=bottom;verticalAlign=top;html=1;outlineConnect=0;" vertex="1" parent="1">
          <mxGeometry x="690" y="180" width="90" height="150" as="geometry" />
        </mxCell>
        <mxCell id="T-Ay2KSamFzbn1bJ3DCf-36" value="Text" style="text;html=1;align=center;verticalAlign=middle;resizable=0;points=[];autosize=1;strokeColor=none;fillColor=none;" vertex="1" parent="1">
          <mxGeometry x="295" y="145" width="50" height="30" as="geometry" />
        </mxCell>
        <mxCell id="T-Ay2KSamFzbn1bJ3DCf-37" value="" style="rounded=0;whiteSpace=wrap;html=1;" vertex="1" parent="1">
          <mxGeometry x="240" y="-10" width="400" height="600" as="geometry" />
        </mxCell>
        <mxCell id="T-Ay2KSamFzbn1bJ3DCf-38" value="" style="ellipse;whiteSpace=wrap;html=1;" vertex="1" parent="1">
          <mxGeometry x="380" y="60" width="120" height="80" as="geometry" />
        </mxCell>
        <mxCell id="T-Ay2KSamFzbn1bJ3DCf-39" value="" style="ellipse;whiteSpace=wrap;html=1;" vertex="1" parent="1">
          <mxGeometry x="380" y="440" width="120" height="80" as="geometry" />
        </mxCell>
        <mxCell id="T-Ay2KSamFzbn1bJ3DCf-45" value="" style="endArrow=none;html=1;rounded=0;" edge="1" parent="1" target="T-Ay2KSamFzbn1bJ3DCf-38">
          <mxGeometry width="50" height="50" relative="1" as="geometry">
            <mxPoint x="200" y="240" as="sourcePoint" />
            <mxPoint x="370" y="270" as="targetPoint" />
          </mxGeometry>
        </mxCell>
        <mxCell id="T-Ay2KSamFzbn1bJ3DCf-47" value="" style="endArrow=none;html=1;rounded=0;exitX=0.725;exitY=-0.012;exitDx=0;exitDy=0;exitPerimeter=0;" edge="1" parent="1" source="T-Ay2KSamFzbn1bJ3DCf-39">
          <mxGeometry width="50" height="50" relative="1" as="geometry">
            <mxPoint x="210" y="250" as="sourcePoint" />
            <mxPoint x="680" y="230" as="targetPoint" />
          </mxGeometry>
        </mxCell>
        <mxCell id="T-Ay2KSamFzbn1bJ3DCf-48" value="random angka" style="text;html=1;strokeColor=none;fillColor=none;align=center;verticalAlign=middle;whiteSpace=wrap;rounded=0;" vertex="1" parent="1">
          <mxGeometry x="410" y="90" width="60" height="30" as="geometry" />
        </mxCell>
        <mxCell id="T-Ay2KSamFzbn1bJ3DCf-50" value="tebak angka" style="text;html=1;strokeColor=none;fillColor=none;align=center;verticalAlign=middle;whiteSpace=wrap;rounded=0;" vertex="1" parent="1">
          <mxGeometry x="410" y="470" width="60" height="30" as="geometry" />
        </mxCell>
      </root>
    </mxGraphModel>
  </diagram>
</mxfile>
